<?xml version="1.0" encoding="utf-8"?>
<!-- Generator: Adobe Illustrator 28.2.0, SVG Export Plug-In . SVG Version: 6.00 Build 0)  -->
<svg version="1.1" xmlns="http://www.w3.org/2000/svg" xmlns:xlink="http://www.w3.org/1999/xlink" x="0px" y="0px"
	 viewBox="0 0 1490.7 1047.8" style="enable-background:new 0 0 1490.7 1047.8;" xml:space="preserve">
<style type="text/css">
	.st0{fill:#29ABE2;}
	.st1{fill:none;stroke:#E5F7FF;stroke-width:20;stroke-miterlimit:10;}
	.st2{fill:none;stroke:#CCF0FF;stroke-width:20;stroke-miterlimit:10;}
	.st3{fill:none;stroke:#99E1FF;stroke-width:20;stroke-miterlimit:10;}
	.st4{fill:none;stroke:#66D2FF;stroke-width:20;stroke-miterlimit:10;}
	.st5{fill:#FFFFFF;}
</style>
<g id="レイヤー_1">
	<path class="st0" d="M1245.3,470.5c3.9-8.5,6.6-19.1,6.6-32V418c0-24.6-8.7-45.5-23.6-60c-3.3-17.9-13.7-33.9-29.8-45.1
		c-13.4-9.9-29-15.1-45.3-15.1h-3l-3,0.3c-13,1.4-23.3,5.4-31.1,9.9c-11-7.8-24.1-11.9-38.2-11.9c-12.9,0-25,2.6-36.2,7.7
		c-7.9-3.3-16.4-5-25.3-5c-3.6,0-7.1,0.2-10.5,0.6c-0.1-0.1-0.2-0.2-0.3-0.3c-14.1-17.2-34.5-27-56.9-27c-5.7,0-12.5,0.7-20,3
		c-5.2-10.1-12.1-17.1-18.4-21.8c-12.8-9.6-28.8-14.4-47.6-14.4H861l-1.7,0.1c-8,0.5-15.4,1.8-22.3,3.9c-9.9-3.9-20.6-6-31.8-6
		c-31.2,0-56.7,19.6-65.8,50.2c-3.3,9.2-6.9,17.9-10.8,26.1c-15.4-10.7-33.1-16.3-51.9-16.3c-18,0-34.9,5.3-49.5,15.5
		c-9-5.7-21.6-10.5-38.3-10.5h-16.7c-4.1-16.7-12.5-28.2-19.9-35.5c-10.3-10.3-28.6-22.5-57.7-22.5H405c-17.1,0-30.5,4.2-40.8,9.8
		c-1.1,0-2.1-0.1-3.2-0.1h-50.8c-23.3,0-38.8,8.4-48.2,16.3c-10.4,8.5-25.3,26.1-25.3,56.9c0,16.7,4.3,29.5,9.9,39.1
		c-3.5,8.5-5.9,18.9-5.9,31.4c0,18.4,5.3,32,11.7,41.9c-10.1,12.8-15.7,28.7-15.7,45.9c0,17.3,5.5,33.6,15.9,47.1
		c13.7,18,34.3,28.3,56.6,28.3c8.6,0,17.3-1.4,26.3-4.1l0.3,0.3l0.5,0.4c9.2,7.7,25.3,16.9,49,16.9H422c-2,6.5-3.2,14.1-3.2,22.7
		c0,14.8,3.8,26.5,8.7,35.4c-8.7,11.9-13.3,26.3-13.3,41.8v1.3l0.1,1.3c0.5,10.5,3.7,25.3,15.5,39.9v12.3
		c0,42.4,31.4,73.1,74.7,73.1h18.9c10.2,5.1,21.3,7.8,32.7,7.8c13.3,0,25.7-3.2,36.2-9.2c10.1,5.5,21.8,8.4,34,8.4
		c7.5,0,14.2-1,20.2-2.6c8.4,3.3,17.6,5,27,5c14.4,0,28.4-3.9,41.5-11.7l0.4-0.2c5.1-3.1,9.9-6.3,14.4-9.7
		c14.8,12.8,34.5,19.2,58.7,19.2h28.1l2.5-0.2c5.5-0.5,10.8-1.5,15.9-3.1c3.7,0.6,7.5,0.9,11.4,0.9h158.6c22.2,0,41.6-9,54.5-25.3
		l0.4-0.6l0.4-0.6c8.7-11.6,13.1-26,13.1-42.6c0-13.9-3.3-24.9-7.8-33.5c0,0,0-0.1,0-0.1c0-7.9-1.1-14.8-2.8-20.9
		c0.3-2.7,0.4-5.4,0.4-8.1v-2.9l-0.3-2.8c-0.5-4.9-1.6-9.8-3.2-14.9c2.7-4.1,5.2-8.8,7.1-14.3c2.4,0.1,4.9,0.2,7.4,0.2l1.1,0l1.1,0
		c24.3-0.7,46.8-8.7,65.1-23.2l0.8-0.6l0.7-0.6c11.4-9.7,20.1-21.7,25.8-35.3h11.5c22.8,0,42.9-8.9,56.8-25l0.6-0.7l0.6-0.8
		c7-8.8,15.4-24,15.4-46.7C1253.9,491.6,1250.2,479.6,1245.3,470.5z"/>
	<path class="st0" d="M1245.3,470.5c3.9-8.5,6.6-19.1,6.6-32V418c0-24.6-8.7-45.5-23.6-60c-3.3-17.9-13.7-33.9-29.8-45.1
		c-13.4-9.9-29-15.1-45.3-15.1h-3l-3,0.3c-13,1.4-23.3,5.4-31.1,9.9c-11-7.8-24.1-11.9-38.2-11.9c-12.9,0-25,2.6-36.2,7.7
		c-7.9-3.3-16.4-5-25.3-5c-3.6,0-7.1,0.2-10.5,0.6c-0.1-0.1-0.2-0.2-0.3-0.3c-14.1-17.2-34.5-27-56.9-27c-5.7,0-12.5,0.7-20,3
		c-5.2-10.1-12.1-17.1-18.4-21.8c-12.8-9.6-28.8-14.4-47.6-14.4H861l-1.7,0.1c-8,0.5-15.4,1.8-22.3,3.9c-9.9-3.9-20.6-6-31.8-6
		c-31.2,0-56.7,19.6-65.8,50.2c-3.3,9.2-6.9,17.9-10.8,26.1c-15.4-10.7-33.1-16.3-51.9-16.3c-18,0-34.9,5.3-49.5,15.5
		c-9-5.7-21.6-10.5-38.3-10.5h-16.7c-4.1-16.7-12.5-28.2-19.9-35.5c-10.3-10.3-28.6-22.5-57.7-22.5H405c-17.1,0-30.5,4.2-40.8,9.8
		c-1.1,0-2.1-0.1-3.2-0.1h-50.8c-23.3,0-38.8,8.4-48.2,16.3c-10.4,8.5-25.3,26.1-25.3,56.9c0,16.7,4.3,29.5,9.9,39.1
		c-3.5,8.5-5.9,18.9-5.9,31.4c0,18.4,5.3,32,11.7,41.9c-10.1,12.8-15.7,28.7-15.7,45.9c0,17.3,5.5,33.6,15.9,47.1
		c13.7,18,34.3,28.3,56.6,28.3c8.6,0,17.3-1.4,26.3-4.1l0.3,0.3l0.5,0.4c9.2,7.7,25.3,16.9,49,16.9H422c-2,6.5-3.2,14.1-3.2,22.7
		c0,14.8,3.8,26.5,8.7,35.4c-8.7,11.9-13.3,26.3-13.3,41.8v1.3l0.1,1.3c0.5,10.5,3.7,25.3,15.5,39.9v12.3
		c0,42.4,31.4,73.1,74.7,73.1h18.9c10.2,5.1,21.3,7.8,32.7,7.8c13.3,0,25.7-3.2,36.2-9.2c10.1,5.5,21.8,8.4,34,8.4
		c7.5,0,14.2-1,20.2-2.6c8.4,3.3,17.6,5,27,5c14.4,0,28.4-3.9,41.5-11.7l0.4-0.2c5.1-3.1,9.9-6.3,14.4-9.7
		c14.8,12.8,34.5,19.2,58.7,19.2h28.1l2.5-0.2c5.5-0.5,10.8-1.5,15.9-3.1c3.7,0.6,7.5,0.9,11.4,0.9h158.6c22.2,0,41.6-9,54.5-25.3
		l0.4-0.6l0.4-0.6c8.7-11.6,13.1-26,13.1-42.6c0-13.9-3.3-24.9-7.8-33.5c0,0,0-0.1,0-0.1c0-7.9-1.1-14.8-2.8-20.9
		c0.3-2.7,0.4-5.4,0.4-8.1v-2.9l-0.3-2.8c-0.5-4.9-1.6-9.8-3.2-14.9c2.7-4.1,5.2-8.8,7.1-14.3c2.4,0.1,4.9,0.2,7.4,0.2l1.1,0l1.1,0
		c24.3-0.7,46.8-8.7,65.1-23.2l0.8-0.6l0.7-0.6c11.4-9.7,20.1-21.7,25.8-35.3h11.5c22.8,0,42.9-8.9,56.8-25l0.6-0.7l0.6-0.8
		c7-8.8,15.4-24,15.4-46.7C1253.9,491.6,1250.2,479.6,1245.3,470.5z"/>
	<path class="st0" d="M1245.3,470.5c3.9-8.5,6.6-19.1,6.6-32V418c0-24.6-8.7-45.5-23.6-60c-3.3-17.9-13.7-33.9-29.8-45.1
		c-13.4-9.9-29-15.1-45.3-15.1h-3l-3,0.3c-13,1.4-23.3,5.4-31.1,9.9c-11-7.8-24.1-11.9-38.2-11.9c-12.9,0-25,2.6-36.2,7.7
		c-7.9-3.3-16.4-5-25.3-5c-3.6,0-7.1,0.2-10.5,0.6c-0.1-0.1-0.2-0.2-0.3-0.3c-14.1-17.2-34.5-27-56.9-27c-5.7,0-12.5,0.7-20,3
		c-5.2-10.1-12.1-17.1-18.4-21.8c-12.8-9.6-28.8-14.4-47.6-14.4H861l-1.7,0.1c-8,0.5-15.4,1.8-22.3,3.9c-9.9-3.9-20.6-6-31.8-6
		c-31.2,0-56.7,19.6-65.8,50.2c-3.3,9.2-6.9,17.9-10.8,26.1c-15.4-10.7-33.1-16.3-51.9-16.3c-18,0-34.9,5.3-49.5,15.5
		c-9-5.7-21.6-10.5-38.3-10.5h-16.7c-4.1-16.7-12.5-28.2-19.9-35.5c-10.3-10.3-28.6-22.5-57.7-22.5H405c-17.1,0-30.5,4.2-40.8,9.8
		c-1.1,0-2.1-0.1-3.2-0.1h-50.8c-23.3,0-38.8,8.4-48.2,16.3c-10.4,8.5-25.3,26.1-25.3,56.9c0,16.7,4.3,29.5,9.9,39.1
		c-3.5,8.5-5.9,18.9-5.9,31.4c0,18.4,5.3,32,11.7,41.9c-10.1,12.8-15.7,28.7-15.7,45.9c0,17.3,5.5,33.6,15.9,47.1
		c13.7,18,34.3,28.3,56.6,28.3c8.6,0,17.3-1.4,26.3-4.1l0.3,0.3l0.5,0.4c9.2,7.7,25.3,16.9,49,16.9H422c-2,6.5-3.2,14.1-3.2,22.7
		c0,14.8,3.8,26.5,8.7,35.4c-8.7,11.9-13.3,26.3-13.3,41.8v1.3l0.1,1.3c0.5,10.5,3.7,25.3,15.5,39.9v12.3
		c0,42.4,31.4,73.1,74.7,73.1h18.9c10.2,5.1,21.3,7.8,32.7,7.8c13.3,0,25.7-3.2,36.2-9.2c10.1,5.5,21.8,8.4,34,8.4
		c7.5,0,14.2-1,20.2-2.6c8.4,3.3,17.6,5,27,5c14.4,0,28.4-3.9,41.5-11.7l0.4-0.2c5.1-3.1,9.9-6.3,14.4-9.7
		c14.8,12.8,34.5,19.2,58.7,19.2h28.1l2.5-0.2c5.5-0.5,10.8-1.5,15.9-3.1c3.7,0.6,7.5,0.9,11.4,0.9h158.6c22.2,0,41.6-9,54.5-25.3
		l0.4-0.6l0.4-0.6c8.7-11.6,13.1-26,13.1-42.6c0-13.9-3.3-24.9-7.8-33.5c0,0,0-0.1,0-0.1c0-7.9-1.1-14.8-2.8-20.9
		c0.3-2.7,0.4-5.4,0.4-8.1v-2.9l-0.3-2.8c-0.5-4.9-1.6-9.8-3.2-14.9c2.7-4.1,5.2-8.8,7.1-14.3c2.4,0.1,4.9,0.2,7.4,0.2l1.1,0l1.1,0
		c24.3-0.7,46.8-8.7,65.1-23.2l0.8-0.6l0.7-0.6c11.4-9.7,20.1-21.7,25.8-35.3h11.5c22.8,0,42.9-8.9,56.8-25l0.6-0.7l0.6-0.8
		c7-8.8,15.4-24,15.4-46.7C1253.9,491.6,1250.2,479.6,1245.3,470.5z"/>
	<path class="st0" d="M1245.3,470.5c3.9-8.5,6.6-19.1,6.6-32V418c0-24.6-8.7-45.5-23.6-60c-3.3-17.9-13.7-33.9-29.8-45.1
		c-13.4-9.9-29-15.1-45.3-15.1h-3l-3,0.3c-13,1.4-23.3,5.4-31.1,9.9c-11-7.8-24.1-11.9-38.2-11.9c-12.9,0-25,2.6-36.2,7.7
		c-7.9-3.3-16.4-5-25.3-5c-3.6,0-7.1,0.2-10.5,0.6c-0.1-0.1-0.2-0.2-0.3-0.3c-14.1-17.2-34.5-27-56.9-27c-5.7,0-12.5,0.7-20,3
		c-5.2-10.1-12.1-17.1-18.4-21.8c-12.8-9.6-28.8-14.4-47.6-14.4H861l-1.7,0.1c-8,0.5-15.4,1.8-22.3,3.9c-9.9-3.9-20.6-6-31.8-6
		c-31.2,0-56.7,19.6-65.8,50.2c-3.3,9.2-6.9,17.9-10.8,26.1c-15.4-10.7-33.1-16.3-51.9-16.3c-18,0-34.9,5.3-49.5,15.5
		c-9-5.7-21.6-10.5-38.3-10.5h-16.7c-4.1-16.7-12.5-28.2-19.9-35.5c-10.3-10.3-28.6-22.5-57.7-22.5H405c-17.1,0-30.5,4.2-40.8,9.8
		c-1.1,0-2.1-0.1-3.2-0.1h-50.8c-23.3,0-38.8,8.4-48.2,16.3c-10.4,8.5-25.3,26.1-25.3,56.9c0,16.7,4.3,29.5,9.9,39.1
		c-3.5,8.5-5.9,18.9-5.9,31.4c0,18.4,5.3,32,11.7,41.9c-10.1,12.8-15.7,28.7-15.7,45.9c0,17.3,5.5,33.6,15.9,47.1
		c13.7,18,34.3,28.3,56.6,28.3c8.6,0,17.3-1.4,26.3-4.1l0.3,0.3l0.5,0.4c9.2,7.7,25.3,16.9,49,16.9H422c-2,6.5-3.2,14.1-3.2,22.7
		c0,14.8,3.8,26.5,8.7,35.4c-8.7,11.9-13.3,26.3-13.3,41.8v1.3l0.1,1.3c0.5,10.5,3.7,25.3,15.5,39.9v12.3
		c0,42.4,31.4,73.1,74.7,73.1h18.9c10.2,5.1,21.3,7.8,32.7,7.8c13.3,0,25.7-3.2,36.2-9.2c10.1,5.5,21.8,8.4,34,8.4
		c7.5,0,14.2-1,20.2-2.6c8.4,3.3,17.6,5,27,5c14.4,0,28.4-3.9,41.5-11.7l0.4-0.2c5.1-3.1,9.9-6.3,14.4-9.7
		c14.8,12.8,34.5,19.2,58.7,19.2h28.1l2.5-0.2c5.5-0.5,10.8-1.5,15.9-3.1c3.7,0.6,7.5,0.9,11.4,0.9h158.6c22.2,0,41.6-9,54.5-25.3
		l0.4-0.6l0.4-0.6c8.7-11.6,13.1-26,13.1-42.6c0-13.9-3.3-24.9-7.8-33.5c0,0,0-0.1,0-0.1c0-7.9-1.1-14.8-2.8-20.9
		c0.3-2.7,0.4-5.4,0.4-8.1v-2.9l-0.3-2.8c-0.5-4.9-1.6-9.8-3.2-14.9c2.7-4.1,5.2-8.8,7.1-14.3c2.4,0.1,4.9,0.2,7.4,0.2l1.1,0l1.1,0
		c24.3-0.7,46.8-8.7,65.1-23.2l0.8-0.6l0.7-0.6c11.4-9.7,20.1-21.7,25.8-35.3h11.5c22.8,0,42.9-8.9,56.8-25l0.6-0.7l0.6-0.8
		c7-8.8,15.4-24,15.4-46.7C1253.9,491.6,1250.2,479.6,1245.3,470.5z"/>
	<path class="st1" d="M673.5,1037.8c-13.1,0-26.2-0.8-39-2.5c-2.7,0.1-5.4,0.1-8.2,0.1c-10.6,0-21.1-0.6-31.5-1.7
		c-12.8,1.6-25.7,2.5-38.7,2.5c-23.5,0-47-2.8-69.9-8.3c-73.6-4.2-141.9-34-193.9-84.8c-28.9-28.3-51.4-61.7-66.8-99.2
		c-8.5-20.8-14.6-42.3-18.3-64.4c-1.5-3.9-3-7.9-4.3-11.9c-9.1-3.5-18-7.4-26.7-11.7c-40.4-20.2-76.3-50-103.8-86.1
		c-20.2-26.5-35.9-55.9-46.5-87.4C15.3,551,10,518.2,10,485c0-19.4,1.8-38.6,5.5-57.4c-1-10-1.5-20.1-1.5-30.3
		c0-5.9,0.2-11.8,0.5-17.6c-3-17.3-4.5-35-4.5-52.9c0-90.9,39.1-175.2,107.4-231.5c24.4-20.2,51.8-36.4,81.5-47.9
		c35.1-13.6,72.6-20.5,111.3-20.5h16.4C352,20.3,378.3,17,405,17h89.8c54.5,0,106.5,13.5,152,38.9C692.8,26.6,747.3,10,805.2,10
		c13.5,0,26.9,0.8,40.2,2.5c0.2,0,9-0.5,9-0.5h8.4c56.4,0,109.7,14.2,156.1,41.5c16.6,4,32.7,9.3,48.2,16c3.6-0.1,7.3-0.2,10.9-0.2
		c15.1,0,30.1,1.1,44.9,3.4c0.1,0,15.3-1.6,15.3-1.6h15.1c64,0,125.4,19.9,177.5,57.6c44,31.3,78,72.7,99.4,120.3
		c31.6,49.3,48.5,107.5,48.5,169v20.5c0,8.5-0.3,16.9-1,25.3c2,14.2,3,28.7,3,43.2c0,38.1-6.8,75.1-20.2,109.9
		c-10.9,28.4-26,54.8-44.9,78.4l-3,3.7l-3.1,3.6c-30.8,36-69.5,63.6-112.7,81.4c-7.3,48.2-26,93.1-55,131.9l-2.1,2.8l-2.2,2.7
		c-56,70.9-140.8,111.6-232.5,111.6H851c-3.9,0.5-7.8,0.9-11.7,1.3l-12.6,1.1h-38.3c-18.1,0-35.8-1.3-53-4
		C715.1,1035.7,694.3,1037.8,673.5,1037.8z"/>
	<path class="st2" d="M673.5,981.1c-12.2,0-24.2-0.9-36.1-2.6c-3.7,0.2-7.4,0.2-11.1,0.2c-10.8,0-21.5-0.7-32.2-2.1
		c-12.5,1.9-25.2,2.9-38,2.9c-20.7,0-41.5-2.7-61.6-8c-120.4-4.6-215.9-91.7-232.3-207.4c-5.6-13.3-9.9-27.1-12.9-41.3
		c-16.5-4.2-32.5-10.2-47.8-17.8c-32.7-16.4-61.8-40.5-84.1-69.8C84.2,591.9,66.7,539.9,66.7,485c0-18.8,2.1-37.2,6.1-54.9
		c-1.4-10.8-2.1-21.7-2.1-32.8c0-7,0.3-14,0.8-20.9c-3.2-16.2-4.8-32.8-4.8-49.6c0-73.9,31.6-142.3,86.8-187.9
		c19.7-16.4,41.8-29.4,65.9-38.7c28.6-11.1,59.1-16.7,90.8-16.7h23.4c22.8-6.5,46.6-9.8,71.4-9.8h89.8c57.1,0,110.8,18.1,154.2,51.4
		c42.2-36.9,97.1-58.4,156.3-58.4c12.9,0,25.7,0.9,38.2,2.8c1.9-0.2,3.9-0.3,5.8-0.4l6.7-0.4h6.7c49.2,0,95.3,13.1,134.6,38.1
		c20.5,4.1,40.2,10.9,58.8,20c7.2-0.6,14.5-0.9,21.8-0.9c14.8,0,29.3,1.3,43.5,4c2.5-0.3,5-0.7,7.6-0.9l12.1-1.3h12.1
		c52.1,0,102,16.2,144.5,47c36.9,26.3,65.2,61.2,82.4,101.4c27.2,41,41.9,89.9,41.9,141.9v20.5c0,9-0.5,17.9-1.4,26.6
		c2.2,13.6,3.4,27.6,3.4,41.9c0,56.9-18.2,109.8-52.7,152.9l-2.4,3l-2.5,2.9c-27.8,32.4-63.5,56.4-103.2,70.4c-3.2,3-6.5,6-9.9,8.9
		l-2.9,2.5l-3.1,2.5c-1.3,1.1-2.7,2.1-4.1,3.2c-2.9,47.5-18.9,91.7-46.7,128.7l-1.7,2.2l-1.7,2.2c-45.2,57.3-113.7,90.1-188,90.1
		H847.2c-4.3,0.6-8.6,1.1-12.9,1.5l-10.1,0.9h-35.8c-18.7,0-37-1.7-54.5-5.1C714.2,978.6,693.9,981.1,673.5,981.1z"/>
	<path class="st3" d="M673.5,924.4c-11.2,0-22.3-1-33.1-2.9c-4.7,0.3-9.4,0.5-14.1,0.5c-11,0-22-1-32.8-2.9
		c-12.2,2.4-24.8,3.7-37.4,3.7c-18,0-36-2.7-53.2-7.8c-50.1-0.4-96.7-19.2-131.3-53c-30.8-30.2-49.7-69.7-54.1-113.1
		c-9.8-21-15.4-43.7-16.5-67.2l-0.2-4c0,0,0-4.1,0-4.1c-54.7-2.4-104.7-28.7-138.3-72.8c-25.6-33.5-39.1-73.5-39.1-115.9
		c0-17.9,2.4-35.4,7.2-52.1c-2.1-11.6-3.2-23.5-3.2-35.7c0-8.1,0.5-16.1,1.4-24c-3.6-14.9-5.4-30.4-5.4-46.5
		c0-32.6,7.5-63.1,22.3-90.5c11.1-20.7,26-38.8,44.1-53.7c33.3-27.7,74.9-42.3,120.5-42.3h31.9c19.8-6.5,40.9-9.8,62.9-9.8h89.8
		c53,0,102,19.8,137.9,55.7c0.6,0.6,1.2,1.2,1.8,1.8c11.7-2.5,23.7-4,35.8-4.4c7.5-8.4,15.9-16.2,25-23.1
		c31.6-24.2,69.7-37,110.1-37c12.3,0,24.4,1.1,36.3,3.2c3.7-0.4,7.4-0.7,11.2-0.9l5-0.3h5c42,0,81,12.2,113,35.2
		c24.7,3.6,48.2,12,69.3,24.7c10.8-1.8,21.8-2.6,33-2.6c14.4,0,28.5,1.7,42.1,4.9c5-0.9,10-1.6,15-2.2l9-1h9.1
		c40.1,0,78.6,12.6,111.4,36.4c29.9,21.2,52.4,49.7,65.4,82.5c22.9,32.6,35.3,72.3,35.3,114.7v20.5c0,9.6-0.7,19.1-2,28.4
		c2.7,12.9,4,26.3,4,40.1c0,43.9-13.9,84.6-40.3,117.5l-1.8,2.2l-1.9,2.2c-23.8,27.8-55.3,47.6-90.5,57.5
		c-5.2,5.5-10.6,10.7-16.4,15.5l-2.2,1.9l-2.3,1.8c-8.2,6.5-16.7,12.3-25.6,17.5c0.3,4.7,0.5,9.4,0.5,14.1
		c0,41.2-12.4,79.4-35.8,110.7l-1.3,1.7l-1.3,1.6c-34.4,43.5-86.7,68.5-143.5,68.5H846.5c-1.1,0-2.2,0-3.3,0
		c-4.6,0.8-9.2,1.3-13.9,1.8l-7.6,0.7h-33.2c-19.6,0-38.4-2.3-56.1-6.9C713.3,921.3,693.4,924.4,673.5,924.4z"/>
	<path class="st4" d="M673.5,867.8c-10.2,0-20.3-1.2-30.1-3.5c-5.6,0.7-11.3,1.1-17.1,1.1c-11.4,0-22.6-1.5-33.4-4.3
		c-11.8,3.4-24.2,5.1-36.8,5.1c-15.3,0-30.1-2.6-44.3-7.8h-7.3c-35.8,0-69-13.1-93.2-36.8c-23.5-23-36.9-54.1-38.1-88
		c-9.3-16.7-14.7-35.2-15.6-54.4l-0.1-2.7v-2.7c0-15.5,2.7-30.5,7.8-44.6c-16.2-2.3-29.9-7.1-41.3-12.9c-5,0.5-9.9,0.8-14.8,0.8
		c-40.1,0-77.2-18.4-101.6-50.6c-18-23.5-27.5-51.7-27.5-81.5c0-17.2,3.2-33.8,9.3-49.1c-3.5-12.3-5.3-25.3-5.3-38.6
		c0-9.4,0.9-18.6,2.6-27.5c-4.4-13.5-6.6-27.8-6.6-43c0-40.6,16.3-76.3,45.8-100.6c16.1-13.4,43.7-29.3,84.3-29.3H352
		c16.4-6.5,34.2-9.8,53-9.8h89.8c37.9,0,72.6,13.9,97.8,39.1c6.2,6.2,11.8,13.1,16.6,20.4c5.2,0.8,10.4,1.9,15.4,3.3
		c16.5-6.4,34.1-9.8,52.2-9.8c7.1,0,14.1,0.5,21,1.5c8.2-14.1,19-26.3,31.9-36.2c21.6-16.6,47.8-25.3,75.6-25.3
		c11.7,0,23.1,1.4,34.2,4c5.4-0.9,11-1.5,16.6-1.8l3.4-0.2h3.4c30.7,0,58.9,8.9,81.4,25.6c3.3,2.4,6.4,5,9.4,7.7
		c27.6,1,53.7,10.6,75.1,27.2c3.8,0.4,7.6,0.9,11.4,1.7c12.2-3.3,25-5,38-5c14,0,27.6,2.3,40.4,6.7c7.3-2,14.9-3.5,22.7-4.3l6-0.6
		h6.1c28.2,0,55.3,8.9,78.4,25.7c22.9,16.1,39.5,38.3,48,63.6c18.8,24.1,29,54.5,29,87.5v20.5c0,10.4-1.1,20.5-3.2,30.2
		c3.5,12.1,5.2,24.9,5.2,38.3c0,39.1-15.1,66.2-27.8,82.1l-1.2,1.5l-1.2,1.5c-20.2,23.5-47.4,38.5-78.2,43.2
		c-6.5,8.5-13.9,16.4-22.3,23.4l-1.5,1.3l-1.5,1.2c-16.5,13-35.1,22.7-55.1,28.6c0,0.2,0,0.4,0.1,0.5c5.6,14.6,8.4,30.3,8.4,46.9
		c0,28.8-8.5,55.3-24.5,76.6l-0.8,1.1l-0.9,1.1c-23.6,29.8-59.6,46.9-99,46.9H846.5c-2.5,0-4.9-0.1-7.4-0.2c-4.9,1-9.9,1.7-14.9,2.2
		l-5,0.5h-30.7c-20.8,0-40.3-3.5-57.8-10.3C712.5,863.5,693.3,867.8,673.5,867.8z"/>
	<path class="st0" d="M1245.3,470.5c3.9-8.5,6.6-19.1,6.6-32V418c0-24.6-8.7-45.5-23.6-60c-3.3-17.9-13.7-33.9-29.8-45.1
		c-13.4-9.9-29-15.1-45.3-15.1h-3l-3,0.3c-13,1.4-23.3,5.4-31.1,9.9c-11-7.8-24.1-11.9-38.2-11.9c-12.9,0-25,2.6-36.2,7.7
		c-7.9-3.3-16.4-5-25.3-5c-3.6,0-7.1,0.2-10.5,0.6c-0.1-0.1-0.2-0.2-0.3-0.3c-14.1-17.2-34.5-27-56.9-27c-5.7,0-12.5,0.7-20,3
		c-5.2-10.1-12.1-17.1-18.4-21.8c-12.8-9.6-28.8-14.4-47.6-14.4H861l-1.7,0.1c-8,0.5-15.4,1.8-22.3,3.9c-9.9-3.9-20.6-6-31.8-6
		c-31.2,0-56.7,19.6-65.8,50.2c-3.3,9.2-6.9,17.9-10.8,26.1c-15.4-10.7-33.1-16.3-51.9-16.3c-18,0-34.9,5.3-49.5,15.5
		c-9-5.7-21.6-10.5-38.3-10.5h-16.7c-4.1-16.7-12.5-28.2-19.9-35.5c-10.3-10.3-28.6-22.5-57.7-22.5H405c-17.1,0-30.5,4.2-40.8,9.8
		c-1.1,0-2.1-0.1-3.2-0.1h-50.8c-23.3,0-38.8,8.4-48.2,16.3c-10.4,8.5-25.3,26.1-25.3,56.9c0,16.7,4.3,29.5,9.9,39.1
		c-3.5,8.5-5.9,18.9-5.9,31.4c0,18.4,5.3,32,11.7,41.9c-10.1,12.8-15.7,28.7-15.7,45.9c0,17.3,5.5,33.6,15.9,47.1
		c13.7,18,34.3,28.3,56.6,28.3c8.6,0,17.3-1.4,26.3-4.1l0.3,0.3l0.5,0.4c9.2,7.7,25.3,16.9,49,16.9H422c-2,6.5-3.2,14.1-3.2,22.7
		c0,14.8,3.8,26.5,8.7,35.4c-8.7,11.9-13.3,26.3-13.3,41.8v1.3l0.1,1.3c0.5,10.5,3.7,25.3,15.5,39.9v12.3
		c0,42.4,31.4,73.1,74.7,73.1h18.9c10.2,5.1,21.3,7.8,32.7,7.8c13.3,0,25.7-3.2,36.2-9.2c10.1,5.5,21.8,8.4,34,8.4
		c7.5,0,14.2-1,20.2-2.6c8.4,3.3,17.6,5,27,5c14.4,0,28.4-3.9,41.5-11.7l0.4-0.2c5.1-3.1,9.9-6.3,14.4-9.7
		c14.8,12.8,34.5,19.2,58.7,19.2h28.1l2.5-0.2c5.5-0.5,10.8-1.5,15.9-3.1c3.7,0.6,7.5,0.9,11.4,0.9h158.6c22.2,0,41.6-9,54.5-25.3
		l0.4-0.6l0.4-0.6c8.7-11.6,13.1-26,13.1-42.6c0-13.9-3.3-24.9-7.8-33.5c0,0,0-0.1,0-0.1c0-7.9-1.1-14.8-2.8-20.9
		c0.3-2.7,0.4-5.4,0.4-8.1v-2.9l-0.3-2.8c-0.5-4.9-1.6-9.8-3.2-14.9c2.7-4.1,5.2-8.8,7.1-14.3c2.4,0.1,4.9,0.2,7.4,0.2l1.1,0l1.1,0
		c24.3-0.7,46.8-8.7,65.1-23.2l0.8-0.6l0.7-0.6c11.4-9.7,20.1-21.7,25.8-35.3h11.5c22.8,0,42.9-8.9,56.8-25l0.6-0.7l0.6-0.8
		c7-8.8,15.4-24,15.4-46.7C1253.9,491.6,1250.2,479.6,1245.3,470.5z"/>
</g>
<g id="レイヤー_2">
	<g>
		<path class="st5" d="M310.2,310.2H361c5.5,0,9.6,1.2,12.2,3.5c2.8,1.8,4.2,6.2,4.2,13c0,5.8-0.8,9.9-2.5,12.2
			c-2.8,3.7-7.5,5.5-14,5.5h-9.8v35h5c5.5,0,9.5,1.2,12,3.8c3,2,4.5,6.7,4.5,14c0,5.8-0.8,9.8-2.5,12c-2.8,3.7-7.5,5.5-14,5.5h-5
			v37.8c2.7-0.8,5.2-1.7,7.8-2.5c6.7,0,10.8,1.5,12.5,4.5c3.2,4,4.9,8.3,5.2,13c0,9-3,14.2-9,15.5c-4.8,3.3-19.2,9-43,17
			c-6,2.5-11.2,3.8-15.5,3.8c-4.7,0-8.5-2-11.5-6c-2.8-3.7-4.2-7.9-4.2-12.8c0-6.7,3-11.8,9-15.5c5.5-2.2,11-4.2,16.5-6.2v-48.5
			h-4.8c-5.2,0-9.2-1.3-12-4c-3.2-2.5-4.8-7-4.8-13.5c0-7,1.6-11.8,4.8-14.2c2.3-2.3,6.3-3.5,12-3.5h4.8v-35h-8.8c-5,0-9-1.4-12-4.2
			c-3.2-2.3-4.8-6.8-4.8-13.5c0-6.5,1.6-10.9,4.8-13.2C300.5,311.3,304.5,310.2,310.2,310.2z M405,300.5h89.8
			c15.7,0,23.5,7.8,23.5,23.5v72.2c0,15.7-7.8,23.5-23.5,23.5h-29.2v17.5h38.2c5.7,0,9.8,1.1,12.3,3.2c2.2,1.8,3.2,5.6,3.2,11.2
			c0,4.8-0.9,8.4-2.8,10.8c-2.8,3.3-7.1,5-12.8,5h-38.2V485h42c6,0,10.3,1.2,13,3.5c2.5,2,3.8,6.1,3.8,12.2c0,5-1,8.8-3,11.2
			c-3,3.5-7.6,5.2-13.8,5.2h-122c-5.5,0-9.8-1.2-12.8-3.8c-2.7-2.3-4-6.6-4-12.7c0-6,1.3-10.1,4-12.2c2.7-2.3,6.9-3.5,12.8-3.5h47.8
			v-17.5h-40c-5.2,0-9.1-1.2-11.8-3.5c-2.7-2.3-4-6.4-4-12.2c0-5.5,1.3-9.2,4-11.2c2.5-2.2,6.4-3.2,11.8-3.2h40v-17.5H405
			c-15.7,0-23.5-7.8-23.5-23.5V324C381.5,308.3,389.3,300.5,405,300.5z M415.7,345.5h17.5v-14.8h-12.8c-3.2,0-4.8,1.6-4.8,4.8V345.5
			z M433.2,389.2v-15.5h-17.5v10.8c0,3.2,1.6,4.8,4.8,4.8H433.2z M465.5,330.7v14.8H484v-10c0-3.2-1.6-4.8-4.8-4.8H465.5z
			 M479.2,389.2c3.2,0,4.8-1.6,4.8-4.8v-10.8h-18.5v15.5H479.2z"/>
		<path class="st5" d="M676.7,353.5c8.8,0,16.8,3.2,23.8,9.5c11.5,9,26.4,20.2,44.8,33.5c2.3,2.7,3.7,5.9,4,9.8c0,4.8-1.7,9-5,12.5
			c-3.3,3.5-7.2,5.2-11.8,5.2c-4,0-7.6-1-10.8-3c0,1,0,2,0,3c0,4.5-0.7,7.6-2,9.2c-2.2,2.8-5.8,4.2-10.8,4.2h-68.2
			c-3.8,0-6.9-1-9.2-3c-2.3-1.8-3.5-5.3-3.5-10.5c0-0.2,0-0.4,0-0.8c-1.3,0.5-2.7,0.8-4,0.8c-6.2,0-10.9-2.2-14.2-6.8
			c-0.7-0.8-1.2-1.7-1.8-2.5c-0.2,0.8-0.5,1.5-1,2c-2.5,2.8-6.2,4.2-11.2,4.2h-65.5c-4.5,0-7.9-1.1-10.2-3.2
			c-2.2-1.8-3.2-5.3-3.2-10.5c0-5.2,1.1-8.7,3.2-10.5c2.2-2,5.6-3,10.2-3h65.5c5,0,8.6,1,10.8,3c0.7,0.5,1.2,1.2,1.5,2
			c0.7-0.8,1.5-1.6,2.5-2.2c17-12,32.6-23.9,46.8-35.8C662.9,355.9,669.4,353.5,676.7,353.5z M536.2,358.5H589
			c4.2,0,7.2,0.9,9.2,2.8c2.3,1.3,3.5,4.7,3.5,10c0,4.5-0.7,7.6-2,9.2c-2.2,3-5.8,4.5-10.8,4.5h-52.8c-3.8,0-6.9-1.1-9.2-3.2
			c-2.3-1.8-3.5-5.3-3.5-10.5c0-5,1.2-8.4,3.5-10.2C528.8,359.3,531.9,358.5,536.2,358.5z M537.2,429.7H589c5,0,8.6,1,10.8,3
			c1.8,1.5,2.8,4.8,2.8,9.8c0,4.2-0.8,7.2-2.5,9.2c-2.3,3-6,4.5-11,4.5h-51.8c-4.7,0-8.2-1.1-10.5-3.2c-2.2-1.8-3.2-5.3-3.2-10.5
			c0-4.8,1.1-8.2,3.2-10C528.9,430.6,532.4,429.7,537.2,429.7z M537.2,469H589c5,0,8.6,0.9,10.8,2.8c1.8,1.7,2.8,4.9,2.8,9.8
			c0,4.2-0.8,7.3-2.5,9.5c-2.3,2.8-6,4.2-11,4.2h-51.8c-4.7,0-8.2-1.1-10.5-3.2c-2.2-1.8-3.2-5.3-3.2-10.5c0-4.8,1.1-8.1,3.2-9.8
			C528.9,469.9,532.4,469,537.2,469z M542,504h40c12.5,0,18.8,6.2,18.8,18.5v39.2c0,12.3-6.2,18.5-18.8,18.5h-40
			c-12.3,0-18.5-6.2-18.5-18.5v-39.2C523.5,510.1,529.6,504,542,504z M566.5,554.7c3.8,0,5.8-1.9,5.8-5.8v-13.8
			c0-3.8-1.9-5.8-5.8-5.8h-8.8c-4,0-6,1.9-6,5.8V549c0,3.8,2,5.8,6,5.8H566.5z M723.7,447.5c13,0,19.5,5.5,19.5,16.5v98.7
			c0,7.2-1.8,12.2-5.2,15c-3.7,3-9.1,4.5-16.2,4.5h-6.2c-2,0-4.2-0.3-6.5-1c-2.3-0.3-4.2-1.8-5.8-4.2c-0.7-1.7-1.2-3.3-1.5-5
			c-0.2,0.2-0.3,0.2-0.5,0.2c-1.8,2-4.8,3-8.8,3c-3.8,0-6.8-1-8.8-3c-2-1.7-3-4.5-3-8.5v-36.2H672v37c0,4.2-1,7.1-3,8.8
			c-1.8,2-4.8,3-8.8,3c-3.8,0-6.8-1-8.8-3c-2-1.7-3-4.6-3-8.8v-37h-11.8v44c-0.5,7.3-5.3,11.2-14.5,11.8
			c-9.3-0.5-14.2-4.4-14.8-11.8V466c0-12.3,6.2-18.5,18.5-18.5H723.7z M636.7,501h11.8v-25.2h-9.8c-1.3,0-2,0.7-2,2V501z M648,410.2
			h59.2c-6-5-12.8-11.1-20.5-18.2c-3.7-4.2-6.7-6.2-9-6.2c-2,0-4.3,1.3-7,4C661.4,398.6,653.8,405.4,648,410.2z M672,475.7V501h8.8
			v-25.2H672z M704.2,475.7V501h9.8v-24.2c0-0.7-0.7-1-2-1H704.2z M704.2,527.5V557c0.2-0.2,0.3-0.3,0.5-0.5c1.3-1,2.6-1.6,3.8-1.8
			h3.5c1.3,0,2-0.6,2-1.8v-25.5H704.2z"/>
		<path class="st5" d="M805.2,293.5c6.2,0,11.3,1.5,15.5,4.5c4.5,1.7,6.8,6.1,6.8,13.2c0,3.5-0.7,6.8-2,10
			c-3.3,11.7-7.5,23.1-12.5,34.2v148.2c0,6.3-1.6,10.7-4.8,13.2c-2.7,2.8-6.9,4.2-12.8,4.2c-5.8,0-10.1-1.4-12.8-4.2
			c-3.3-2.5-5-6.9-5-13.2v-91.5c-0.7,0.8-1.3,1.7-2,2.5c-2.3,3.8-6.5,5.8-12.5,5.8c-7,0-12.3-1.8-16-5.5c-3.7-3-5.5-7.3-5.5-13
			c0-3,1.4-6.6,4.2-10.8c19.7-23.8,35.5-52.8,47.5-87C795.3,297.1,799.2,293.5,805.2,293.5z M948.7,328.7c5.8,0,10.5,2.5,14,7.5
			c3,2.5,4.5,7.8,4.5,16c0,5.5-2.6,10.1-7.8,13.8c-13.5,10.8-28.7,20.3-45.5,28.5c-11.2,5.5-22.4,10.2-33.8,14v66.8c0,4,2,6,6,6
			h32.2c3.5,0,6-1.9,7.5-5.8c2-3.7,3.8-10,5.5-19c1.3-7.5,2.2-14.2,2.5-20.2c2.2-4.2,6.4-6.4,12.8-6.8c6.8,0,12.4,1.5,16.8,4.5
			c4.5,3.2,6.8,8.2,6.8,15c-0.3,7.5-1.4,15.3-3.2,23.5c-1.7,8-4.2,16-7.8,24c-3.5,6.5-8,11.6-13.5,15.2c-5.5,3.7-12,5.8-19.5,6.5
			h-52.8c-8.7-0.2-15.6-2.8-20.8-8c-4.3-4.2-6.8-11.9-7.5-23.2V311.2c0.2-5.8,1.6-10,4.2-12.5c3.2-1.8,7.6-2.9,13.2-3.2
			c6.3,0,10.9,1.1,13.8,3.2c2.3,1.7,3.6,5.8,3.8,12.5V371c17.8-9.2,37-21.5,57.5-37C941.4,330.5,945,328.7,948.7,328.7z"/>
		<path class="st5" d="M1016.5,355.5c2.8,0,5.1,1,6.8,3c2.8,2.2,5.9,5.4,9.2,9.8c7.5,11.2,11.2,19.3,11.2,24.5h23.2
			c-2.8-6.7-5.8-12.8-8.8-18.5c-1.2-1.7-1.8-3.3-1.8-5c0-5.7,2.7-10.2,8-13.5c4-2,8.5-3,13.5-3c2.8,0,5.1,0.9,6.8,2.8
			c2.5,2.2,5.2,5.6,8,10.2c6.5,11.3,9.8,19.7,9.8,25c0,0.7-0.1,1.3-0.2,2h18.8c0.5-1.3,1.5-3,3-5c1.2-1.7,2.5-3.7,4-6
			c3-4.7,5.9-9.2,8.8-13.5c2.7-4.7,4.6-7.9,5.8-9.8c2.5-2.2,6.1-3.5,10.8-4c4.3,0,8.4,1.5,12.2,4.5c4.8,3.2,7.2,6.9,7.2,11.2
			c0,3.2-0.6,5.9-1.8,8.2c-1.5,3.5-3.8,7.2-7,11.2c-0.7,1-1.3,2-2,3h8.8c16.3,0,24.5,8.4,24.5,25.2v20.5c0,6-1.6,10.2-4.8,12.5
			c-3,2.8-7.2,4.2-12.8,4.2c-6.8,0-11.7-1.3-14.5-4c-2.2-2.2-3.2-5.4-3.2-9.8V427c0-2.7-1.6-4-4.8-4h-144.8c-2.5,0-3.8,1.3-3.8,4
			v16.5c0,0.5,0,1,0,1.5c1.8-5.8,6.4-8.9,13.8-9.2h113.2c14.8,0.5,22.7,6.7,23.5,18.5c0,5.2-1.6,10.4-4.8,15.8
			c-3.3,7.3-8.9,14.4-16.8,21.2h44.8c6,0,10.3,1.2,13,3.8c2.5,2,3.8,6,3.8,12c0,5-1,8.7-3,11.2c-3,3.5-7.6,5.2-13.8,5.2h-62.8
			c1.5,6.2,2.2,12.1,2.2,17.8c-0.2,13.2-4.7,23.5-13.5,31c-8.8,7-19.3,10.7-31.5,11c-15.3-0.2-26.3-1.8-33-5
			c-9.8-2.5-14.8-8.7-14.8-18.5c0.2-5.8,1.6-10.3,4.2-13.5c2.3-3.2,6.4-4.8,12.2-5c1.8,0,6.4,0.8,13.8,2.2
			c7.3,1.7,13.2,2.5,17.5,2.5c4,0,6-3.2,6-9.8c0-2.7-1.4-6.9-4.2-12.8h-91.5c-5.5,0-9.8-1.2-12.8-3.8c-2.7-2.3-4-6.6-4-12.7
			c0-6,1.3-10.1,4-12.2c2.7-2.3,6.9-3.5,12.8-3.5h74.2c-0.7-1.8-1-3.4-1-4.8c0-6,2.2-10,6.5-12c4.2-2.5,9.2-3.8,15-3.8
			c8,0.3,13.2,2.7,15.5,7c1.2,1.5,2.2,3,3.2,4.5c11-5.3,16.5-10.1,16.5-14.2c0-2-1-3-3-3h-91.8c-9.3-0.5-14.2-5.4-14.8-14.8
			c-0.7,1.7-1.6,2.9-2.8,3.8c-2.7,2.2-7.2,3.2-13.8,3.2c-6,0-10.4-1.3-13.2-4c-3-3.2-4.5-7.4-4.5-12.8V418
			c0-16.8,8.2-25.2,24.5-25.2h9.2c-2.8-5.7-5.6-10.9-8.2-15.8c-1.3-1.5-2-3.1-2-4.8c0-5.8,2.7-10.3,8-13.5
			C1007,356.6,1011.5,355.5,1016.5,355.5z"/>
		<path class="st5" d="M561.5,582.4h82c4.3,0,7.3,0.9,9.2,2.6c2.3,1.5,3.4,4.8,3.4,10c0,4.4-0.7,7.5-2,9.2c-2.1,2.7-5.7,4-10.6,4
			h-3.8v39h7.8c4.1,0,7.2,0.9,9.2,2.8c2.1,1.6,3.2,5.1,3.2,10.6c0,4.4-0.6,7.5-1.8,9.2c-2.1,2.7-5.7,4-10.6,4h-7.8v65.8
			c0,4.4-1.1,7.5-3.4,9.2c-2.1,2.1-5.5,3.2-10,3.2c-4,0-7.1-1.1-9.2-3.2c-2.1-1.9-3.2-4.9-3.2-9.2v-65.8h-22.2
			c-0.7,6.7-1.5,13.2-2.4,19.6c-3.1,21.1-10.3,39.1-21.6,54c-1.9,3.6-5.7,5.4-11.6,5.4c-3.6,0-7-1.2-10.2-3.6
			c-1.7-1.6-2.7-3.7-3-6.2c-2.1,1.3-4.8,2-8,2h-30.4c-12,0-18-5.5-18-16.4v-42.2c-0.3,0-0.5,0-0.8,0c-4.3,0-7.7-1.4-10.4-4.2
			c-2.8-2.8-4.3-5.6-4.4-8.4c0-4.5,1.5-8.1,4.6-10.8c9.2-12.4,15.5-23.2,19-32.4c2.5-6.3,4.6-13.2,6.2-20.8h-12.6c-3.7,0-6.7-1-9-3
			c-2.4-1.9-3.6-5.3-3.6-10.2c0-5.3,1.2-8.9,3.6-10.8c1.7-1.7,4.7-2.6,9-2.6h53c4.3,0,7.4,0.9,9.4,2.8c0.1,0.1,0.3,0.3,0.6,0.4
			c0.4-0.5,0.9-1.1,1.4-1.6C554.2,583.2,557.2,582.4,561.5,582.4z M513.9,718.4h7.8c1.6,0,2.4-1.8,2.4-5.4v-46.2
			c0-1.6-0.8-2.4-2.4-2.4h-7.8c-1.6,0-2.4,1.3-2.4,4V713C511.5,716.6,512.3,718.4,513.9,718.4z M518.7,638h13.2
			c9.7,0,15.3,3.7,16.8,11.2c1.7-1.3,4.5-2,8.2-2h10c0-0.7,0-1.4,0-2.2v-36.8h-5.4c-3.7,0-6.7-1-9-3c0-0.1-0.1-0.2-0.2-0.2
			c-0.1,0.3-0.3,0.5-0.6,0.6c-2.1,2.8-5.7,4.2-10.6,4.2h-15.2C524.4,619.2,522,628.6,518.7,638z M549.1,671.6v54.8
			c6.3-11.3,11.3-24.7,15.2-40.2c0.7-4,1.1-8.1,1.4-12.4h-8.8C553.7,673.8,551.1,673,549.1,671.6z M613.9,647.2v-39h-21.2V645
			c0,0.8,0,1.5,0,2.2H613.9z"/>
		<path class="st5" d="M745.5,570c6,0,10.3,1.1,12.8,3.4c3.3,2.8,5,6.6,5,11.4h52.4c14.1,0,21.2,7,21.2,21v11.8c0,5.3-1.4,9-4.2,11
			c-2.7,2.5-6.5,3.8-11.4,3.8c-6,0-10.3-1.2-13-3.6c-1.9-2-2.8-4.9-2.8-8.8v-7c0-2.1-1.5-3.2-4.6-3.2h-18.2c0.1,0.9,0.2,2,0.2,3.2
			v15.6c0,4.7,2.3,7,7,7h29c6.3,0,9.4,3.9,9.4,11.6c0,7.9-3.1,11.8-9.4,11.8h-42.2c-14.1,0-21.2-7-21.2-21v-25
			c0-1.2,0.1-2.3,0.4-3.2h-14.2c-2,8.1-5.8,15.9-11.4,23.4c-3.6,4.4-7.9,8.5-13,12.2c1.1-0.3,2.1-0.4,3.2-0.4
			c5.5,0.1,9.7,1.5,12.6,4c2.5,1.6,3.8,4.7,3.8,9.2c0,3.1-0.3,6.5-0.8,10.2h38.2c7.5,0,13.5,1.7,18.2,5c4.5,4,6.8,10.1,6.8,18.4
			l-7.8,29.8c0,2.5,1.6,3.8,4.8,3.8h7.8c1.6,0,3.1-0.9,4.6-2.6c2.1-2.8,3.7-7.9,4.8-15.4c1.9-4.7,6-7,12.4-7
			c3.6,0.1,6.7,1.4,9.4,3.8c3.1,2.8,4.6,6.2,4.6,10.2c0,9.2-2.3,17.8-7,25.8c-5.1,7.2-11.3,11.1-18.8,11.8h-25.6
			c-11.3,0-19.1-2.3-23.2-7c-3.9-3.9-5.8-10.7-5.8-20.4l7.8-28c0-2.1-1.3-3.2-4-3.2h-32.6c-3.1,10.4-7.4,19.5-13,27.2
			c-6.9,11.5-17.5,21.5-31.6,30c-4.3,2.5-8.5,3.8-12.6,3.8c-4.8,0-8.7-1.5-11.8-4.6c-2.9-3.3-4.5-6.5-4.6-9.6
			c0.1-4.4,1.9-7.7,5.4-10c15.9-8.1,27-18.1,33.4-30c1.3-2.1,2.5-4.4,3.6-6.8h-26.8c-3.7,0-6.7-1.4-9-4.2c-1.7-1.9-2.6-4.7-2.6-8.4
			c0-3.9,1.2-7.1,3.6-9.6c2.1-1.9,4.8-2.8,8-2.8h33.4c0.4-3.5,0.7-7.1,1-11c0.3-2.7,0.9-4.9,1.8-6.6c-4.8,2.8-10.1,5.3-16,7.6
			c-2.9,1.5-6.8,2.2-11.6,2.2c-5.1,0-8.6-1.2-10.6-3.6c-2.8-2.7-4.2-5.4-4.2-8.2c0-3.6,1.3-6.7,4-9.4c15.5-5.1,26.9-10.9,34.2-17.6
			c3.6-3.2,6.1-7.2,7.6-12h-20.8c-2.7,0-4,1.1-4,3.2v8.6c0,4.8-1.1,8-3.2,9.6c-2.4,1.9-6.5,2.8-12.4,2.8c-5.2,0-9.1-1.2-11.6-3.6
			c-2.7-2.7-4-6.4-4-11.2v-13.4c0-14,7.1-21,21.2-21h50.8c0-4.1,1.6-8,4.8-11.6C735.6,571,739.7,570,745.5,570z"/>
		<path class="st5" d="M924.7,571.4c5.5,0,9.3,1.1,11.6,3.4c2.7,2.1,4.2,4.9,4.6,8.4h53.2c13.6,0,20.4,6.5,20.4,19.6v11.6
			c0,5.1-1.3,8.6-4,10.6c-2.5,2.4-6.1,3.6-10.8,3.6c-0.4,0-0.8-0.1-1.2-0.2c0.3,1.2,0.4,2.5,0.4,4c0,4-0.6,6.7-1.8,8.2
			c-1.2,1.6-3,2.7-5.4,3.2c0,0.1,0.1,0.3,0.2,0.4c4.4,6.1,8.8,14.5,13.2,25c0.9,2.3,1.5,4.1,1.6,5.4c0,4.5-1.5,7.9-4.4,10
			c-3.2,2.5-6.7,3.9-10.4,4.2c-6.4,0-10.6-2.7-12.6-8c-0.3-0.7-0.5-1.4-0.8-2.2l-38.6,1.4c0.3,1.1,0.4,2.1,0.4,3.2v9.4h57.8
			c3.6,0,6.3,0.8,8,2.4c2,1.2,3,4.1,3,8.6c0,3.9-0.6,6.5-1.8,8c-1.9,2.4-4.9,3.6-9.2,3.6h-57.8v10.2h64.8c3.9,0,6.7,0.8,8.6,2.4
			c2.1,1.3,3.2,4.5,3.2,9.4c0,4.1-0.6,7-1.8,8.6c-2,2.5-5.3,3.8-10,3.8H846.5c-3.5,0-6.3-0.9-8.4-2.8c-2.3-1.7-3.4-4.9-3.4-9.6
			c0-4.7,1.1-7.9,3.4-9.6c1.6-1.5,4.4-2.2,8.4-2.2h62.6v-10.2h-54.8c-3.3,0-5.9-0.9-7.8-2.6c-2.1-1.6-3.2-4.6-3.2-9
			c0-4.4,1.1-7.4,3.2-9c1.5-1.3,4.1-2,7.8-2h54.8v-9.4c0-0.7,0-1.3,0-2l-54,2c-4.1-0.1-7.1-1.3-9-3.4c-1.6-1.6-2.5-4.3-2.8-8.2
			c0.3-4.4,1.5-7.4,3.6-9c1.7-1.7,4.2-2.7,7.4-2.8l11.2-0.4l10.4-15.2h-13c-3.3,0-5.9-0.9-7.8-2.8c-2.1-1.6-3.2-4.6-3.2-9
			c0-0.8,0.1-1.5,0.2-2.2c-5.2,0-8.9-1.2-11.2-3.6c-2.5-2.5-3.8-6.1-3.8-10.6v-13.2c0-13.1,6.8-19.6,20.4-19.6h51
			c0.4-3.1,1.9-5.9,4.4-8.6C915.3,572.4,919.2,571.4,924.7,571.4z M866.7,621.6h118.8c-0.4-1.5-0.6-3.1-0.6-4.8v-7
			c0-2.1-1.6-3.2-4.8-3.2H870.7c-2.5,0-3.8,1.1-3.8,3.2v8.6C866.9,619.6,866.8,620.6,866.7,621.6z M967.5,656.2
			c-0.3-0.4-0.5-0.7-0.6-1c-1.1-1.6-1.6-2.9-1.6-4c0-2.7,0.9-5,2.8-7h-61l-9.6,14.2L967.5,656.2z"/>
	</g>
</g>
</svg>
